<svg xmlns="http://www.w3.org/2000/svg" aria-hidden="true" style="position:absolute;width:0;height:0;overflow:hidden">
  <defs>
    <symbol id="icon-antenna-1" viewBox="0 0 32 32">
      <path fill="#2e2f42" d="m30.773 22.098-8.443-8.505.937-4.615c.242.094.499.144.758.146h.006a2.159 2.159 0 1 0-2.008-1.435l-4.96.605L8.972.161a.534.534 0 0 0-.377-.16.532.532 0 0 0-.373.155L6.709 1.66a.534.534 0 0 0 0 .754l.814.826a14.943 14.943 0 0 0 2.519 17.663.513.513 0 0 0 .146.098c-.034.18-.051.364-.052.547v6.187h-6.4a2.67 2.67 0 0 0-2.667 2.667v1.067c0 .295.239.533.533.533h24.533a.533.533 0 0 0 .533-.533v-1.067a2.67 2.67 0 0 0-2.667-2.667h-6.4v-2.742a15.09 15.09 0 0 0 3.049.32 14.854 14.854 0 0 0 7.04-1.783l.818.823a.534.534 0 0 0 .377.16.532.532 0 0 0 .373-.155l1.513-1.504a.534.534 0 0 0 0-.754zM23.28 6.233a1.067 1.067 0 1 1 .753 1.822h-.003a1.067 1.067 0 0 1-.747-1.823h-.002zm-1.256 3.505-.598 2.946-1.175-1.182 1.774-1.763zm-.605-.902-1.92 1.909-1.485-1.493 3.405-.415zM24.004 28.8a1.6 1.6 0 0 1 1.6 1.6v.533H2.137V30.4a1.6 1.6 0 0 1 1.6-1.6h20.267zm-7.467-2.133v1.067h-5.333v-1.067h5.333zM11.204 25.6v-4.053c0-1.294 1.196-2.347 2.667-2.347s2.667 1.053 2.667 2.347V25.6h-5.333zm6.4-1.696v-2.357c0-1.882-1.675-3.413-3.733-3.413a3.8 3.8 0 0 0-3.281 1.786A13.87 13.87 0 0 1 8.311 4.033l18.602 18.708a13.818 13.818 0 0 1-9.309 1.163zm11.289-.684L7.836 2.039l.755-.752 7.935 7.98c.004 0 .006.007.01.01l13.115 13.191-.757.752z" style="fill:var(--color1, #2e2f42)"/>
      <path fill="#4d5ae5" d="M13.876 20.267h-.005a1.6 1.6 0 1 0-.004 3.2h.005a1.6 1.6 0 1 0 .004-3.2zm.373 1.978a.534.534 0 0 1-.752-.756.534.534 0 0 1 .373-.155.534.534 0 0 1 .374.911h.005z" style="fill:var(--color2, #4d5ae5)"/>
    </symbol>
    <symbol id="icon-astronaut-1" viewBox="0 0 32 32">
      <path fill="#4d5ae5" d="M31.974 4.524a.534.534 0 0 0-.43-.363l-1.91-.278-.855-1.731c-.179-.365-.777-.365-.956 0l-.855 1.731-1.91.278a.535.535 0 0 0-.296.91l1.383 1.348-.326 1.903c-.034.2.048.402.212.522a.53.53 0 0 0 .562.04l1.709-.899 1.709.899a.536.536 0 0 0 .775-.563l-.326-1.903 1.383-1.348a.536.536 0 0 0 .135-.547zm-2.463 1.327a.534.534 0 0 0-.153.472l.191 1.114-1-.526a.533.533 0 0 0-.498 0l-1.001.526.191-1.114a.534.534 0 0 0-.153-.472l-.81-.789 1.119-.163a.532.532 0 0 0 .402-.292l.5-1.013.5 1.013a.535.535 0 0 0 .402.292l1.119.163-.809.789zM26.133 20.522h-1.067v1.067h1.067v-1.067zM26.133 22.656h-1.067v1.067h1.067v-1.067zM27.2 21.589h-1.067v1.067H27.2v-1.067zM25.067 21.589H24v1.067h1.067v-1.067zM22.4 26.389h-1.067v1.067H22.4v-1.067zM22.4 28.522h-1.067v1.067H22.4v-1.067zM23.467 27.456H22.4v1.067h1.067v-1.067zM21.333 27.456h-1.067v1.067h1.067v-1.067zM16 24.256h-1.067v1.067H16v-1.067zM16 26.389h-1.067v1.067H16v-1.067zM17.067 25.322H16v1.067h1.067v-1.067zM14.933 25.322h-1.067v1.067h1.067v-1.067zM5.867 6.122H4.8v1.067h1.067V6.122zM5.867 8.255H4.8v1.067h1.067V8.255z" style="fill:var(--color2, #4d5ae5)"/>
      <path fill="#4d5ae5" d="M6.933 7.189H5.866v1.067h1.067V7.189zM4.8 7.189H3.733v1.067H4.8V7.189z" style="fill:var(--color2, #4d5ae5)"/>
      <path fill="#2e2f42" d="M24.715 14.159a1.775 1.775 0 0 0-1.188-.705 1.778 1.778 0 0 0-1.34.352l-1.252.96-1.898 1.417-1.358-.541c2.421-1.086 4.114-3.508 4.114-6.32 0-3.823-3.123-6.933-6.961-6.933s-6.961 3.11-6.961 6.933a6.86 6.86 0 0 0 1.12 3.758l-2.764-.024h-.005c-.009 0-.015.004-.023.005a.515.515 0 0 0-.155.031l-.038.013c-.006.003-.013.003-.019.006l-3.233 1.596-.001.001-1.893.911a.397.397 0 0 0-.063.035 1.779 1.779 0 0 0-.598 2.295c.22.429.595.745 1.056.889a1.776 1.776 0 0 0 1.378-.128l1.388-.738 2.264-1.169 1.357-.008L2.2 22.211l-.002.001-1.339 1.333c-.316.315-.49.732-.49 1.178s.174.863.49 1.179c.325.323.752.485 1.179.485s.854-.162 1.18-.485l1.314-1.309 1.741-1.3.901.897-1.762 1.754-.002.001-1.339 1.333c-.316.315-.49.732-.49 1.178s.174.863.49 1.179c.325.323.753.485 1.18.485s.855-.162 1.18-.485l3.482-3.467.001-.002 1.01-1-.004-.004c.006-.006.015-.009.022-.015l5.166-5.658 3.471.494a.52.52 0 0 0 .262-.033c.018-.006.033-.015.05-.023.019-.01.039-.015.058-.027l3.213-2.133c.012-.008.018-.021.029-.029.013-.01.029-.014.041-.026l1.271-1.191c.662-.62.753-1.635.212-2.362zM2.13 17.77a.714.714 0 0 1-.558.052.717.717 0 0 1-.213-1.26l1.314-.632.449 1.313-.992.527zm3.498-1.828-1.548.8-.439-1.283 2.027-1.001-.04 1.484zm15.099-6.62a5.79 5.79 0 0 1-.599 2.559l-4.181-1.899a1.863 1.863 0 0 0-.788-1.388l1.464-4.86c2.378.756 4.105 2.974 4.105 5.588zm-11.789 0c0-3.235 2.644-5.867 5.894-5.867.253 0 .5.021.745.052l-1.432 4.754c-.019-.001-.037-.006-.057-.006-1.033 0-1.873.837-1.873 1.867s.84 1.867 1.873 1.867c.694 0 1.294-.383 1.618-.945l3.862 1.755a5.894 5.894 0 0 1-4.737 2.39c-3.25 0-5.894-2.632-5.894-5.867zm5.956.8c0 .441-.362.8-.806.8s-.806-.359-.806-.8c0-.441.362-.8.806-.8s.806.359.806.8zM2.465 25.146a.608.608 0 0 1-.854.001.592.592 0 0 1 0-.844l.962-.958.851.848-.959.955zm3.214 3.734a.608.608 0 0 1-.855.001.592.592 0 0 1 0-.844l.963-.959.852.848-.96.955zm3.481-3.469-.002.001-1.765 1.76-.852-.848 1.763-1.755.002-.001c.04-.04.065-.088.09-.135.007-.014.02-.026.026-.04.017-.041.019-.085.026-.129.003-.025.014-.047.014-.073 0-.036-.013-.07-.02-.106-.006-.032-.006-.065-.019-.095a.55.55 0 0 0-.091-.138c-.01-.012-.014-.027-.025-.038h-.001l-.001-.002-1.607-1.6c-.017-.017-.039-.024-.058-.038a.507.507 0 0 0-.087-.058.515.515 0 0 0-.093-.033.507.507 0 0 0-.103-.02.5.5 0 0 0-.095.005.53.53 0 0 0-.104.02.477.477 0 0 0-.094.045c-.02.011-.042.015-.061.029L4.23 23.486l-.901-.897 2.399-2.386 4.361 4.289-.928.919zm6.819-7.017c-.015-.002-.03.004-.045.003a.556.556 0 0 0-.3.075.492.492 0 0 0-.083.061c-.013.011-.028.017-.04.029l-4.698 5.146-4.328-4.257 2.833-2.818a.534.534 0 0 0-.379-.911v-.001l-2.219.013.028-1.607 3.104.027a6.947 6.947 0 0 0 4.981 2.101c.437 0 .864-.045 1.279-.123.04.032.079.065.13.085l2.41.96.152.758.178.885-3.003-.427zm4.041.178-.313-1.558 1.446-1.08.947 1.257-2.08 1.381zm3.754-2.831-.838.785-.931-1.236.831-.637a.735.735 0 0 1 .543-.143.718.718 0 0 1 .48.284.713.713 0 0 1-.085.947z" style="fill:var(--color1, #2e2f42)"/>
      <path fill="#2e2f42" d="m13.602 18.544-2.143-2.133a.534.534 0 0 0-.753 0l-2.142 2.133a.537.537 0 0 0 0 .756l2.142 2.133a.536.536 0 0 0 .753 0l2.143-2.133a.535.535 0 0 0 0-.756zm-2.519 1.759-1.387-1.381 1.387-1.381 1.387 1.381-1.387 1.381zM17.164 5.071l-.258 1.036c.071.018 1.738.452 1.738 2.149h1.067c0-2.017-1.666-2.965-2.547-3.185zM19.711 9.322h-1.067v1.067h1.067V9.322z" style="fill:var(--color1, #2e2f42)"/>
    </symbol>
    <symbol id="icon-clock-1" viewBox="0 0 32 32">
      <path fill="#2e2f42" d="M31.297 15.301C31.295 6.849 24.442-.002 15.989 0S.686 6.855.688 15.308a15.304 15.304 0 0 0 10.649 14.576.662.662 0 0 0 .529-.065.637.637 0 0 0 .283-.356l3.865-12.25a1.912 1.912 0 1 0-.84-3.635l-5.106-5.107a.637.637 0 0 0-.902.902l5.103 5.109a1.876 1.876 0 0 0 .536 2.309l-3.683 11.673C3.844 25.783.118 17.71 2.799 10.432S13.553-.572 20.831 2.109c7.278 2.681 11.004 10.754 8.323 18.032a14.042 14.042 0 0 1-7.462 7.973l-.398-1.874a.637.637 0 0 0-1.049-.344l-3.837 3.426a.637.637 0 0 0 .231 1.084l4.899 1.564a.638.638 0 0 0 .819-.74l-.391-1.839a15.255 15.255 0 0 0 9.329-14.089zm-15.305-.637a.638.638 0 1 1 0 1.277.638.638 0 0 1 0-1.277zm2.101 14.864 2.184-1.948.603 2.84-2.787-.892z" style="fill:var(--color1, #2e2f42)"/>
      <path fill="#4d5ae5" d="M15.354 3.185V4.46a.638.638 0 1 0 1.276 0V3.185a.638.638 0 0 0-1.276 0zM3.876 14.664a.638.638 0 0 0 0 1.276h1.275a.638.638 0 1 0 0-1.276H3.876zM28.108 15.939a.638.638 0 1 0 0-1.276h-1.275a.638.638 0 0 0 0 1.276h1.275z" style="fill:var(--color2, #4d5ae5)"/>
    </symbol>
    <symbol id="icon-diagram-1" viewBox="0 0 32 32">
      <path fill="#4d5ae5" d="M14.925 14.965h1.066v4.798h-1.066v-4.797zM19.19 17.097h1.066v2.665H19.19v-2.665zM10.661 18.696h1.066v1.066h-1.066v-1.066zM7.463 18.163h1.066v1.599H7.463v-1.599z" style="fill:var(--color2, #4d5ae5)"/>
      <path fill="#2e2f42" d="M1.599 28.291h25.587a1.6 1.6 0 0 0 1.599-1.599V24.56a1.6 1.6 0 0 0-1.599-1.599h-.533V9.668L29.681 6.8a1.608 1.608 0 1 0-.746-.763L26.654 8.2V6.97a1.6 1.6 0 0 0-1.599-1.599H3.733A1.6 1.6 0 0 0 2.134 6.97v15.992h-.533a1.6 1.6 0 0 0-1.599 1.599v2.132a1.6 1.6 0 0 0 1.599 1.599zM30.384 4.837a.533.533 0 1 1 0 1.067.533.533 0 0 1 0-1.067zM3.198 6.969c0-.294.239-.533.533-.533h21.322c.294 0 .533.239.533.533v2.239l-1.066 1.013V8.035a.533.533 0 0 0-.533-.533H4.797a.533.533 0 0 0-.533.533v13.326c0 .294.239.533.533.533h19.19a.533.533 0 0 0 .533-.533v-9.674l1.066-1.01v12.284H3.198V6.969zm4.798 6.93a1.598 1.598 0 1 0 1.107 2.749l1.853.93a.532.532 0 0 0 .636-.123l3.939-4.431 3.872 2.901a.533.533 0 0 0 .686-.039l3.365-3.188v8.131H5.33V8.569h18.124v2.66l-3.771 3.572-3.904-2.927a.533.533 0 0 0-.718.072l-3.993 4.493-1.493-.746c.011-.064.018-.129.02-.193a1.6 1.6 0 0 0-1.599-1.599zm.533 1.599a.533.533 0 1 1-1.067 0 .533.533 0 0 1 1.067 0zm3.198 8.529h5.331v.533a.533.533 0 0 1-.533.533h-4.264a.533.533 0 0 1-.533-.533v-.533zm-10.661.533c0-.294.239-.533.533-.533h9.062v.533a1.6 1.6 0 0 0 1.599 1.599h4.264a1.6 1.6 0 0 0 1.599-1.599v-.533h9.062c.294 0 .533.239.533.533v2.132a.533.533 0 0 1-.533.533H1.598a.533.533 0 0 1-.533-.533V24.56z" style="fill:var(--color1, #2e2f42)"/>
    </symbol>
    <symbol id="icon-Ellipse-1" viewBox="0 0 32 32">
      <path fill="#4d5ae5" d="M32 16c0 4.418-1.791 8.418-4.686 11.314S20.419 32 16 32c-4.418 0-8.418-1.791-11.314-4.686S0 20.419 0 16c0-4.418 1.791-8.418 4.686-11.314S11.581 0 16 0c4.418 0 8.418 1.791 11.314 4.686S32 11.581 32 16z" style="fill:var(--color2, #4d5ae5)"/>
      <path fill="#f4f4fd" d="M25.6 10.047a8.223 8.223 0 0 1-2.268.622 3.915 3.915 0 0 0 1.732-2.176 7.866 7.866 0 0 1-2.496.953 3.936 3.936 0 0 0-6.809 2.691c0 .312.026.612.091.898a11.143 11.143 0 0 1-8.113-4.117 3.96 3.96 0 0 0-.539 1.99c0 1.363.702 2.572 1.748 3.271a3.888 3.888 0 0 1-1.778-.485v.043a3.954 3.954 0 0 0 3.154 3.868c-.32.088-.67.13-1.032.13-.252 0-.506-.014-.745-.067.51 1.559 1.957 2.705 3.678 2.742a7.907 7.907 0 0 1-4.88 1.679c-.323 0-.632-.014-.942-.054a11.085 11.085 0 0 0 6.038 1.766c7.243 0 11.203-6 11.203-11.201 0-.174-.006-.342-.014-.509a7.845 7.845 0 0 0 1.973-2.044z" style="fill:var(--color3, #f4f4fd)"/>
    </symbol>
    <symbol id="icon-Ellipse-2" viewBox="0 0 32 32">
      <path fill="#4d5ae5" d="M32 16c0 4.418-1.791 8.418-4.686 11.314S20.419 32 16 32c-4.418 0-8.418-1.791-11.314-4.686S0 20.419 0 16c0-4.418 1.791-8.418 4.686-11.314S11.581 0 16 0c4.418 0 8.418 1.791 11.314 4.686S32 11.581 32 16z" style="fill:var(--color2, #4d5ae5)"/>
      <path fill="#f4f4fd" d="M19.198 9.588h1.753V6.535a22.54 22.54 0 0 0-2.554-.135c-2.527 0-4.258 1.59-4.258 4.511V13.6H11.35v3.413h2.789V25.6h3.419v-8.586h2.676l.425-3.413h-3.102V11.25c.001-.986.266-1.662 1.641-1.662z" style="fill:var(--color3, #f4f4fd)"/>
    </symbol>
    <symbol id="icon-Ellipse-3" viewBox="0 0 32 32">
      <path fill="#4d5ae5" d="M32 16c0 4.418-1.791 8.418-4.686 11.314S20.419 32 16 32c-4.418 0-8.418-1.791-11.314-4.686S0 20.419 0 16c0-4.418 1.791-8.418 4.686-11.314S11.581 0 16 0c4.418 0 8.418 1.791 11.314 4.686S32 11.581 32 16z" style="fill:var(--color2, #4d5ae5)"/>
      <path fill="#f4f4fd" d="M25.595 25.6v-.001h.005v-7.042c0-3.445-.742-6.098-4.769-6.098-1.936 0-3.235 1.062-3.766 2.07h-.056v-1.748h-3.818v12.818h3.976v-6.347c0-1.671.317-3.287 2.386-3.287 2.039 0 2.07 1.907 2.07 3.394V25.6h3.972zM6.717 12.782h3.981V25.6H6.717V12.782zM8.706 6.4C7.433 6.4 6.4 7.433 6.4 8.706s1.033 2.327 2.306 2.327c1.273 0 2.306-1.054 2.306-2.327S9.978 6.4 8.706 6.4z" style="fill:var(--color3, #f4f4fd)"/>
    </symbol>
    <symbol id="icon-Ellipse" viewBox="0 0 32 32">
      <path fill="#4d5ae5" d="M32 16c0 4.418-1.791 8.418-4.686 11.314S20.419 32 16 32c-4.418 0-8.418-1.791-11.314-4.686S0 20.419 0 16c0-4.418 1.791-8.418 4.686-11.314S11.581 0 16 0c4.418 0 8.418 1.791 11.314 4.686S32 11.581 32 16z" style="fill:var(--color2, #4d5ae5)"/>
      <path fill="#f4f4fd" d="M25.581 12.045c-.045-1.02-.21-1.722-.446-2.329a4.693 4.693 0 0 0-1.11-1.703 4.714 4.714 0 0 0-1.699-1.106c-.611-.236-1.309-.401-2.329-.446-1.028-.049-1.354-.06-3.961-.06s-2.933.011-3.957.056c-1.02.045-1.722.21-2.329.446a4.693 4.693 0 0 0-1.703 1.11 4.723 4.723 0 0 0-1.106 1.699c-.236.611-.401 1.309-.446 2.329-.049 1.028-.06 1.354-.06 3.961s.011 2.933.056 3.957c.045 1.02.21 1.722.446 2.329a4.745 4.745 0 0 0 1.11 1.703c.48.488 1.061.866 1.699 1.106.611.236 1.309.401 2.329.446 1.024.045 1.35.056 3.957.056s2.933-.011 3.957-.056c1.02-.045 1.722-.21 2.329-.446a4.912 4.912 0 0 0 2.809-2.809c.236-.611.401-1.309.446-2.329.045-1.024.056-1.35.056-3.957s-.004-2.933-.049-3.957zm-1.729 7.839c-.041.938-.199 1.444-.33 1.782a3.187 3.187 0 0 1-1.823 1.823c-.338.131-.848.289-1.782.33-1.013.045-1.316.056-3.878.056s-2.869-.011-3.878-.056c-.938-.041-1.444-.199-1.782-.33a2.972 2.972 0 0 1-1.103-.716 2.964 2.964 0 0 1-.716-1.103c-.131-.338-.289-.848-.33-1.782-.045-1.013-.056-1.317-.056-3.878s.011-2.869.056-3.878c.041-.938.199-1.444.33-1.782.154-.416.398-.795.72-1.103a2.964 2.964 0 0 1 1.103-.716c.338-.131.848-.289 1.782-.33 1.013-.045 1.317-.056 3.878-.056 2.566 0 2.869.011 3.878.056.938.041 1.444.199 1.782.33a2.96 2.96 0 0 1 1.103.716c.319.311.563.686.716 1.103.131.338.289.848.33 1.782.045 1.013.056 1.316.056 3.878s-.011 2.862-.056 3.875z" style="fill:var(--color3, #f4f4fd)"/>
      <path fill="#f4f4fd" d="M16.036 11.07a4.933 4.933 0 0 0 0 9.864 4.933 4.933 0 0 0 0-9.864zm0 8.131a3.2 3.2 0 1 1 .002-6.4 3.2 3.2 0 0 1-.002 6.4zM22.314 10.875a1.151 1.151 0 1 1-2.303 0 1.151 1.151 0 0 1 2.303 0z" style="fill:var(--color3, #f4f4fd)"/>
    </symbol>
    <symbol id="icon-facebook-1" viewBox="0 0 32 32">
      <path fill="#f4f4fd" d="M21.329 5.313h2.921V.225C23.746.156 22.013 0 19.994 0c-4.212 0-7.097 2.649-7.097 7.519V12H8.249v5.688h4.648V32h5.699V17.689h4.46l.708-5.688h-5.169V8.082c.001-1.644.444-2.769 2.735-2.769z" style="fill:var(--color3, #f4f4fd)"/>
    </symbol>
    <symbol id="icon-instagram-2" viewBox="0 0 32 32">
      <path fill="#f4f4fd" d="M31.969 9.408c-.075-1.7-.35-2.869-.744-3.882a7.803 7.803 0 0 0-1.85-2.838A7.867 7.867 0 0 0 26.543.844C25.524.45 24.361.175 22.661.1 20.948.019 20.404 0 16.06 0s-4.888.019-6.595.094c-1.7.075-2.869.35-3.882.744a7.803 7.803 0 0 0-2.838 1.85A7.867 7.867 0 0 0 .901 5.52C.507 6.539.232 7.702.157 9.402c-.081 1.713-.1 2.257-.1 6.601s.019 4.888.094 6.595c.075 1.7.35 2.869.744 3.882a7.895 7.895 0 0 0 1.85 2.838 7.867 7.867 0 0 0 2.832 1.844c1.019.394 2.182.669 3.882.744 1.706.075 2.25.094 6.595.094s4.888-.019 6.595-.094c1.7-.075 2.869-.35 3.882-.744a8.181 8.181 0 0 0 4.682-4.682c.394-1.019.669-2.182.744-3.882.075-1.707.094-2.25.094-6.595s-.006-4.888-.081-6.595zm-2.882 13.065c-.069 1.563-.331 2.407-.55 2.969a5.31 5.31 0 0 1-3.038 3.038c-.563.219-1.413.481-2.969.55-1.688.075-2.194.094-6.464.094s-4.782-.019-6.464-.094c-1.563-.069-2.407-.331-2.969-.55a4.926 4.926 0 0 1-1.838-1.194 4.974 4.974 0 0 1-1.194-1.838c-.219-.563-.481-1.413-.55-2.969-.075-1.688-.094-2.194-.094-6.464s.019-4.782.094-6.464c.069-1.563.331-2.407.55-2.969a4.868 4.868 0 0 1 1.2-1.838A4.974 4.974 0 0 1 6.639 3.55c.563-.219 1.413-.481 2.969-.55 1.688-.075 2.194-.094 6.464-.094 4.276 0 4.782.019 6.464.094 1.563.069 2.407.331 2.969.55a4.914 4.914 0 0 1 1.838 1.194 4.974 4.974 0 0 1 1.194 1.838c.219.563.481 1.413.55 2.969.075 1.688.094 2.194.094 6.464s-.019 4.77-.094 6.458z" style="fill:var(--color3, #f4f4fd)"/>
      <path fill="#f4f4fd" d="M16.059 7.783c-4.538 0-8.22 3.682-8.22 8.22s3.682 8.22 8.22 8.22 8.22-3.682 8.22-8.22-3.682-8.22-8.22-8.22zm0 13.552a5.333 5.333 0 0 1 0-10.664 5.333 5.333 0 0 1 0 10.664zM26.524 7.458a1.919 1.919 0 1 1-3.838 0 1.919 1.919 0 0 1 3.838 0z" style="fill:var(--color3, #f4f4fd)"/>
    </symbol>
    <symbol id="icon-linkedin-1" viewBox="0 0 32 32">
      <path fill="#f4f4fd" d="M31.992 32v-.001H32V20.263c0-5.741-1.236-10.164-7.948-10.164-3.227 0-5.392 1.771-6.276 3.449h-.093v-2.913h-6.364v21.364h6.627V21.42c0-2.785.528-5.479 3.977-5.479 3.399 0 3.449 3.179 3.449 5.657v10.401h6.62zM.528 10.636h6.635V32H.528V10.636zM3.843 0C1.722 0 0 1.721 0 3.843s1.721 3.879 3.843 3.879c2.121 0 3.843-1.757 3.843-3.879A3.846 3.846 0 0 0 3.843 0z" style="fill:var(--color3, #f4f4fd)"/>
    </symbol>
    <symbol id="icon-twitter-1" viewBox="0 0 32 32">
      <path fill="#f4f4fd" d="M32 6.078c-1.19.522-2.458.868-3.78 1.036a6.523 6.523 0 0 0 2.886-3.626 13.11 13.11 0 0 1-4.16 1.588A6.574 6.574 0 0 0 22.154 3c-3.632 0-6.556 2.948-6.556 6.562 0 .52.044 1.02.152 1.496-5.454-.266-10.28-2.88-13.522-6.862a6.605 6.605 0 0 0-.898 3.316 6.57 6.57 0 0 0 2.914 5.452 6.479 6.479 0 0 1-2.964-.808v.072c0 3.188 2.274 5.836 5.256 6.446a6.548 6.548 0 0 1-1.72.216 5.8 5.8 0 0 1-1.242-.112c.85 2.598 3.262 4.508 6.13 4.57a13.182 13.182 0 0 1-8.134 2.798c-.538 0-1.054-.024-1.57-.09A18.469 18.469 0 0 0 10.064 29c12.072 0 18.672-10 18.672-18.668 0-.29-.01-.57-.024-.848A13.087 13.087 0 0 0 32 6.078z" style="fill:var(--color3, #f4f4fd)"/>
    </symbol>
    <symbol id="icon-Frame-3" viewBox="0 0 32 32">
<path fill="#fff" style="fill: var(--color1, #fff)" d="M32 2.667l-32 15 10.227 3.156 15.773-12.323-11.998 13.488 0.010 0.003-0.012-0.003v7.345l5.735-5.576 7.265 2.242 5-23.333z"></path>
</symbol>
<symbol id="icon-Checkbox-1" viewBox="0 0 32 32">
<path stroke-linejoin="miter" stroke-linecap="butt" stroke-miterlimit="4" stroke-width="2" d="M4 1h24c1.657 0 3 1.343 3 3v24c0 1.657-1.343 3-3 3h-24c-1.657 0-3-1.343-3-3v-24c0-1.657 1.343-3 3-3z"></path>
</symbol>
<symbol id="icon-close-black-18dp-2-1-1" viewBox="0 0 32 32">
<path d="M32 3.224l-3.224-3.224-12.776 12.776-12.776-12.776-3.224 3.224 12.776 12.776-12.776 12.776 3.224 3.224 12.776-12.776 12.776 12.776 3.224-3.224-12.776-12.776 12.776-12.776z"></path>
</symbol>
<symbol id="icon-email-black-18dp-1-1" viewBox="0 0 24 32">
<path d="M20 8h-16c-1.1 0-1.989 0.9-1.989 2l-0.011 12c0 1.1 0.9 2 2 2h16c1.1 0 2-0.9 2-2v-12c0-1.1-0.9-2-2-2zM19.6 12.251l-7.069 4.419c-0.151 0.094-0.334 0.15-0.531 0.15s-0.38-0.056-0.535-0.153l0.004 0.002-7.069-4.419c-0.252-0.15-0.418-0.422-0.418-0.731 0-0.469 0.38-0.849 0.849-0.849 0.174 0 0.337 0.053 0.471 0.143l6.697 4.187 6.7-4.191c0.132-0.088 0.294-0.141 0.468-0.141 0.469 0 0.849 0.38 0.849 0.849 0 0.31-0.166 0.581-0.414 0.729l-0.004 0.002z"></path>
</symbol>
<symbol id="icon-person-black-18dp-1-1" viewBox="0 0 32 32">
<path  d="M16 16c2.946 0 5.333-2.388 5.333-5.333s-2.388-5.333-5.333-5.333v0c-2.946 0-5.333 2.388-5.333 5.333s2.388 5.333 5.333 5.333v0zM16 18.667c-3.561 0-10.667 1.787-10.667 5.333v1.333c0 0.732 0.599 1.333 1.333 1.333h18.667c0.732 0 1.333-0.601 1.333-1.333v-1.333c0-3.547-7.108-5.333-10.667-5.333z"></path>
</symbol>
<symbol id="icon-phone-black-18dp-1-1" viewBox="0 0 24 32">
<path d="M19.635 18.487l-2.451-0.28c-0.067-0.008-0.145-0.013-0.223-0.013-0.531 0-1.012 0.215-1.36 0.564l-1.775 1.775c-2.752-1.42-4.94-3.607-6.322-6.278l-0.038-0.081 1.787-1.785c0.347-0.347 0.562-0.827 0.562-1.358 0-0.079-0.005-0.156-0.014-0.233l0.001 0.009-0.28-2.432c-0.115-0.966-0.93-1.708-1.918-1.708-0.001 0-0.002 0-0.002 0h-1.669c-1.091 0-1.997 0.907-1.929 1.997 0.511 8.24 7.101 14.821 15.332 15.333 1.091 0.067 1.997-0.84 1.997-1.931v-1.669c0-0.003 0-0.007 0-0.011 0-0.981-0.739-1.789-1.69-1.899l-0.009-0.001z"></path>
</symbol>
<symbol id="icon-Property-1click-1" viewBox="0 0 32 32">
<path fill="#404bbf" style="fill: var(--color1, #404bbf)" d="M4 1h24c1.657 0 3 1.343 3 3v24c0 1.657-1.343 3-3 3h-24c-1.657 0-3-1.343-3-3v-24c0-1.657 1.343-3 3-3z"></path>
<path fill="#f4f4fd" style="fill: var(--color2, #f4f4fd)" d="M22.892 8.51c0.329-0.319 0.779-0.515 1.274-0.515 1.003 0 1.819 0.806 1.834 1.805l0 0.001c0 0.014 0.001 0.031 0.001 0.047 0 0.482-0.184 0.922-0.486 1.252l0.001-0.001-9.788 12.308c-0.337 0.364-0.818 0.591-1.352 0.591-0.247 0-0.483-0.049-0.699-0.137l0.012 0.004c-0.239-0.099-0.442-0.237-0.612-0.408l-0-0-6.492-6.526c-0.362-0.339-0.588-0.819-0.588-1.352 0-0.251 0.050-0.49 0.14-0.708l-0.005 0.012c0.282-0.684 0.943-1.156 1.715-1.156 0.009 0 0.018 0 0.026 0h-0.001c0.519 0.010 0.984 0.234 1.311 0.587l0.001 0.001 5.138 5.164 8.52-10.916c0.016-0.020 0.032-0.037 0.050-0.054l-0.002-0z"></path>
<path fill="none" stroke="#404bbf" style="stroke: var(--color1, #404bbf)" stroke-linejoin="miter" stroke-linecap="butt" stroke-miterlimit="4" stroke-width="2" d="M4 1h24c1.657 0 3 1.343 3 3v24c0 1.657-1.343 3-3 3h-24c-1.657 0-3-1.343-3-3v-24c0-1.657 1.343-3 3-3z"></path>
</symbol>
<symbol id="check" viewBox="0 0 10 8">
      <path d="M8.44558 0.255056C8.61838 0.089653 8.84834 -0.00178848 9.08693 2.65108e-05C9.32551 0.0018415 9.55407 0.0967713 9.72436 0.264784C9.89466 0.432797 9.99337 0.660752 9.99968 0.900549C10.006 1.14034 9.91939 1.37323 9.75816 1.55005L4.86357 7.70436C4.7794 7.79551 4.67782 7.86865 4.5649 7.91942C4.45198 7.97018 4.33003 7.99754 4.20636 7.99984C4.08268 8.00214 3.95981 7.97935 3.8451 7.93282C3.73038 7.88629 3.62618 7.81698 3.53872 7.72903L0.292827 4.46564C0.202435 4.38096 0.129933 4.27884 0.0796475 4.16537C0.0293621 4.05191 0.00232279 3.92942 0.000143182 3.80522C-0.00203643 3.68102 0.0206883 3.55765 0.0669613 3.44248C0.113234 3.3273 0.182108 3.22267 0.269473 3.13483C0.356838 3.047 0.460905 2.97775 0.575465 2.93123C0.690026 2.88471 0.812734 2.86186 0.936267 2.86405C1.0598 2.86624 1.18163 2.89343 1.29449 2.94398C1.40734 2.99454 1.50892 3.06743 1.59315 3.15831L4.16189 5.73967L8.42227 0.28219C8.42994 0.272694 8.43813 0.263635 8.4468 0.255056H8.44558Z"/>
    </symbol>
    <symbol id="icon-heroicons-solid_menu-1" viewBox="0 0 32 32">
<path d="M4.8 8c0-0.884 0.716-1.6 1.6-1.6h19.2c0.884 0 1.6 0.716 1.6 1.6s-0.716 1.6-1.6 1.6h-19.2c-0.884 0-1.6-0.716-1.6-1.6v0zM4.8 16c0-0.884 0.716-1.6 1.6-1.6h19.2c0.884 0 1.6 0.716 1.6 1.6s-0.716 1.6-1.6 1.6h-19.2c-0.884 0-1.6-0.716-1.6-1.6v0zM4.8 24c0-0.884 0.716-1.6 1.6-1.6h19.2c0.884 0 1.6 0.716 1.6 1.6s-0.716 1.6-1.6 1.6h-19.2c-0.884 0-1.6-0.716-1.6-1.6v0z"></path>
</symbol>
<symbol id="icon-close-1" viewBox="0 0 32 32">
<path fill="#e7e9fc" style="fill: var(--color1, #e7e9fc); stroke: var(--color2, #2e2f42)" opacity="0.1" stroke="#2e2f42" stroke-linejoin="miter" stroke-linecap="butt" stroke-miterlimit="4" stroke-width="1.3333" d="M31.333 16c0 8.468-6.865 15.333-15.333 15.333s-15.333-6.865-15.333-15.333c0-8.468 6.865-15.333 15.333-15.333s15.333 6.865 15.333 15.333z"></path>
<path fill="#2e2f42" style="fill: var(--color2, #2e2f42)" d="M21.333 11.741l-1.075-1.075-4.259 4.259-4.259-4.259-1.075 1.075 4.259 4.259-4.259 4.259 1.075 1.075 4.259-4.259 4.259 4.259 1.075-1.075-4.259-4.259 4.259-4.259z"></path>
</symbol>
<symbol id="icon-star-wars-1-1" viewBox="0 0 72 32">
<path fill="#ffc700" style="fill: var(--color1, #ffc700)" d="M0 10.003h10.568c0.297 0 3.257 0.492 1.277-1.301-2.169-1.966-2.409-3.602-2.482-4.902-0.071-1.302 1.205-3.8 3.817-3.8h21.46v4.5h-6.628v10.506h-4.917v-10.506h-6.2c-0.904 0-2.109 0-1.033 1l1.879 2.218c1.234 1.384 0.832 2.067 0.832 3.113 0 2.602-2.181 4.175-3.888 4.175h-14.685v-5.003zM45.513 0h-7.933l-4.447 15.007h4.95l0.802-2.102h5.221l0.775 2.102h4.848l-4.216-15.007zM39.99 9.303l1.707-5.504 1.607 5.504h-3.314zM65.394 10.003c-1.908 0-1.908-0.7-1.908-0.7 1.635 0 3.084-2.374 3.084-4.803 0-2.43-2.38-4.5-4.29-4.5h-10.671v15.007h5.423v-5.003s2.31 2.701 3.514 3.802c1.205 1.1 1.305 1.2 2.94 1.2h8.513v-5.002h-6.604zM60.474 6.501h-3.442v-2.701h3.442c1.578 0 1.85 2.702 0 2.702zM0 16.907h5.548l1.406 5.004 1.305-5.004h5.824l1.506 5.004 1.507-5.004h4.82l-4.42 15.010h-4.416l-1.936-7.105-2.181 7.105h-4.52l-4.443-15.010zM33.301 16.994h-7.933l-4.446 15.006h4.948l0.804-2.1h5.221l0.775 2.1h4.849l-4.219-15.006zM27.779 26.296l1.707-5.503 1.606 5.503h-3.312zM65.494 21.411c-0.903 0-1.887 0.105-0.81 1.105l1.878 2.218c1.234 1.385 1.214 1.962 1.214 3.009 0 2.602-2.583 4.174-4.29 4.174l-11.864 0.080c-1.635 0-1.735-0.1-2.94-1.2-1.205-1.101-3.515-3.803-3.515-3.803v5.003h-5.422v-15.007h10.672c1.908 0 4.29 2.070 4.29 4.5s-1.45 4.803-3.085 4.803c0 0 0.72 0.72 1.924 0.72 1.206 0 5.845 0.005 5.845 0.005 0.297 0 3.256 0.492 1.277-1.301-2.17-1.966-2.41-3.602-2.482-4.902s1.056-3.908 3.666-3.908h10.148v4.503h-6.506zM48.61 23.49h-3.442v-2.7h3.442c1.579 0 1.851 2.702 0 2.702z"></path>
</symbol>
<symbol id="icon-Group-1-1" viewBox="0 0 31 32">
<path fill="#ffc700" style="fill: var(--color1, #ffc700)" d="M20.654 4.444c-0.918 0.203-1.627 0.913-1.827 1.814l-0.003 0.016h1.83v-1.83zM21.634 4.444v1.83h1.83c-0.203-0.918-0.913-1.627-1.814-1.827l-0.016-0.003zM20.654 9.085v-1.831h-1.83c0.131 0.915 0.915 1.635 1.83 1.83zM23.464 7.255h-1.83v1.83c0.917-0.203 1.627-0.912 1.827-1.814l0.003-0.016zM31.373 15.49c-0.249-0.060-0.535-0.095-0.829-0.095-2.033 0-3.681 1.648-3.681 3.681 0 0.003 0 0.007 0 0.010v-0c0 1.764 1.242 3.203 2.876 3.595 1.111-2.157 1.634-4.575 1.634-7.19z"></path>
<path fill="#ffc700" style="fill: var(--color1, #ffc700)" d="M30.262 9.87c-2.289-5.752-7.975-9.87-14.576-9.87-4.902 0-9.281 2.222-12.157 5.752 1.307-0.065 2.679-0.131 4.118-0.327 0.326-0.065 0.653 0.196 0.718 0.588s-0.196 0.719-0.588 0.719c-1.83 0.262-3.595 0.392-5.294 0.392-0.326 0.458-0.588 0.915-0.784 1.373 2.876 0.13 6.013-0.131 9.216-0.784 0.326-0.065 0.719 0.13 0.784 0.523 0.065 0.326-0.131 0.719-0.523 0.784-3.268 0.654-6.666 1.046-10.065 0.784-0.196 0.458-0.327 0.85-0.458 1.307 4.837 0.523 9.412-0.261 12.745-1.111 0.327-0.066 0.719 0.13 0.784 0.457s-0.13 0.718-0.457 0.784c-4.38 1.111-9.020 1.634-13.399 1.111-0.065 0.392-0.131 0.85-0.196 1.242 4.968 0.718 10.588 0.196 16.21-1.569 0.326-0.131 0.718 0.065 0.85 0.392s-0.065 0.718-0.392 0.85c-5.425 1.699-11.242 2.483-16.797 1.634v1.503c7.385 1.045 22.287-1.373 30.262-6.536zM21.111 3.071c2.026 0 3.725 1.634 3.725 3.725 0 2.027-1.634 3.726-3.725 3.726s-3.726-1.634-3.726-3.726c0.066-2.091 1.7-3.725 3.726-3.725z"></path>
<path fill="#ffc700" style="fill: var(--color1, #ffc700)" d="M25.882 19.085c0-2.811 2.549-5.098 5.425-4.575-0.065-1.176-0.327-2.288-0.654-3.399-7.974 4.968-22.419 7.778-30.523 6.733l0.196 1.176c5.163 0.915 11.046 0.458 16.993-1.503 0.327-0.131 0.719 0.065 0.85 0.392s-0.065 0.718-0.392 0.85c-5.425 1.764-11.373 2.483-17.058 1.634 0.131 0.458 0.326 0.915 0.523 1.372 5.098 0.85 10.066 0.196 13.66-0.653 0.328-0.065 0.72 0.131 0.784 0.457 0.066 0.326-0.13 0.719-0.522 0.784-4.314 0.98-8.824 1.372-13.268 0.784 0.261 0.523 0.588 0.98 0.85 1.438 3.137 0.392 6.601 0.326 10.327-0.262 0.392-0.065 0.719 0.196 0.719 0.523 0.065 0.327-0.196 0.719-0.523 0.719-3.856 0.654-6.798 0.654-9.412 0.458 0.474 0.538 0.965 1.029 1.485 1.487l0.018 0.016c2.287 0.131 4.706 0.065 7.255-0.326 0.326-0.066 0.719 0.196 0.719 0.588 0.065 0.326-0.196 0.719-0.589 0.719-1.895 0.261-3.725 0.392-5.621 0.392 2.483 1.569 5.36 2.549 8.497 2.549 5.816 0 10.849-3.137 13.594-7.843-1.895-0.588-3.333-2.353-3.333-4.509zM22.157 28.17c-1.767-0.003-3.199-1.435-3.203-3.202v-0c0.003-1.768 1.435-3.2 3.203-3.203h0c1.768 0.003 3.2 1.435 3.203 3.203v0c-0.066 1.764-1.438 3.203-3.203 3.203z"></path>
<path fill="#ffc700" style="fill: var(--color1, #ffc700)" d="M22.157 27.189c0.011 0 0.024 0 0.037 0 1.227 0 2.222-0.995 2.222-2.222s-0.995-2.222-2.222-2.222c-0.013 0-0.026 0-0.039 0l0.002-0c-1.211 0.021-2.185 1.008-2.185 2.222s0.974 2.201 2.183 2.222l0.002 0z"></path>
</symbol>
<symbol id="icon-Group-3" viewBox="0 0 46 32">
<path fill="#ffc700" style="fill: var(--color1, #ffc700)" d="M42.057 28.404c0.189-0.188 0.189-0.565 0-0.753l-5.271-5.272c-0.188-0.188-0.565-0.188-0.753 0l-0.094 0.188c-0.188 0.188-0.188 0.565 0 0.754l5.272 5.271c0.188 0.189 0.565 0.189 0.753 0l0.094-0.188zM42.716 27.086c0.189 0.189 0.565 0.189 0.754 0l0.094-0.094c0.188-0.188 0.188-0.565 0-0.753l-5.27-5.272c-0.188-0.188-0.565-0.188-0.754 0l-0.094 0.094c-0.188 0.188-0.188 0.564 0 0.753l5.271 5.272zM35.374 23.886c-0.188-0.188-0.565-0.188-0.754 0l-0.094 0.094c-0.188 0.188-0.188 0.564 0 0.753l5.271 5.272c0.189 0.188 0.565 0.188 0.754 0l0.094-0.094c0.188-0.188 0.188-0.565 0-0.753l-5.27-5.272zM45.258 28.498c-0.133-0.131-0.316-0.212-0.518-0.212s-0.384 0.081-0.518 0.212l-2.164 2.164c-0.131 0.133-0.212 0.316-0.212 0.518s0.081 0.385 0.212 0.518l-0-0c0.133 0.131 0.316 0.212 0.518 0.212s0.384-0.081 0.518-0.212l2.164-2.165c0.131-0.133 0.212-0.316 0.212-0.518s-0.081-0.385-0.212-0.518l0 0zM35.939 18.614l0.188-0.188c0.131-0.133 0.212-0.316 0.212-0.518s-0.081-0.384-0.212-0.518l-0.188-0.188c-0.133-0.131-0.316-0.212-0.518-0.212s-0.384 0.081-0.518 0.212l-0.188 0.188-2.542-2.542-2.165 5.365 0.941 0.942-0.188 0.188c-0.131 0.133-0.212 0.316-0.212 0.518s0.081 0.384 0.212 0.518l0.188 0.188c0.133 0.131 0.316 0.212 0.518 0.212s0.385-0.081 0.518-0.212l-0 0 0.187-0.188 0.942 0.941 3.765-3.765-0.942-0.942zM0.828 27.839l0.565 0.565-1.129 1.13 2.447 2.447 1.13-1.13 0.47 0.565 3.577-3.577-3.577-3.483-3.482 3.483zM6.441 22.193l-1.065 1.065 3.528 3.528 1.065-1.065-3.528-3.528zM8.553 20.139l-1.064 1.064 3.528 3.528 1.065-1.065-3.528-3.528zM10.133 17.553l-1.065 1.065 4.526 4.526 1.066-1.064-4.526-4.526zM25.585 10.237l-1.788 1.788 5.554 5.931 1.224-3.013-4.989-4.706zM21.819 6.754l-7.154-6.683-1.129 1.035 6.777 7.154 1.506-1.507zM31.892 2.141c0.376-0.47 0.376-1.223 0-1.6l-0.189-0.188c-0.47-0.47-1.224-0.47-1.6 0l-17.509 17.509 1.789 1.788 17.509-17.509z"></path>
</symbol>
<symbol id="icon-Group-2-1" viewBox="0 0 27 32">
<path fill="#ffc700" style="fill: var(--color1, #ffc700)" d="M23.902 7.102c0-3.135-2.482-6.139-5.616-6.661-3.461-0.588-6.922-0.588-10.318 0-3.069 0.522-5.616 3.527-5.616 6.661v1.959h21.551v-1.959zM26.253 17.355v-3.396c0-1.567-1.698-1.829-2.286-2.22h-0.065v-0.98h-21.551v0.98h-0.065l-1.241 0.588c-0.653 0.327-1.045 0.914-1.045 1.633v3.396c0 0.718 0.392 1.306 1.045 1.633l1.241 0.588c-0.196 1.175-0.784 2.286-1.633 3.2-0.327 0.327-0.327 0.849 0 1.241l1.437 1.502c0.522 0.522 0.457 0.849 1.502 3.788 0.261 0.718 1.045 1.175 1.763 0.98 1.306-0.261 2.482-0.522 3.657-0.653 0.392 1.11 1.371 1.763 2.416 1.763h3.396c1.11 0 2.090-0.653 2.482-1.763 1.175 0.131 2.416 0.392 3.657 0.653 0.784 0.196 1.567-0.261 1.763-0.98 0.327-1.045 0.784-2.416 1.045-3.069 0.196-0.653 0.588-0.849 1.894-2.22 0.327-0.327 0.327-0.849 0-1.241-0.849-0.849-1.437-1.959-1.633-3.2 0.522-0.392 2.22-0.653 2.22-2.22zM2.351 18.204l-0.784-0.392c-0.196-0.065-0.327-0.261-0.327-0.522v-3.396c0-0.196 0.131-0.392 0.327-0.522l0.784-0.327v5.159zM4.571 13.633c-0.196-0.457 0.131-0.98 0.522-0.98h5.943c0.457 0 0.718 0.522 0.522 0.98-0.653 1.567-2.024 2.547-3.527 2.547s-2.808-0.98-3.461-2.547zM6.531 27.543c-0.718 0-1.306-0.588-1.306-1.306s0.588-1.306 1.306-1.306 1.306 0.588 1.306 1.306-0.588 1.306-1.306 1.306zM14.825 30.090h-3.396c-1.045 0-1.698-1.175-1.11-2.090l1.698-2.482c0.522-0.784 1.633-0.784 2.155 0l1.698 2.482c0.653 0.849 0 2.090-1.045 2.090zM18.155 21.273c-0.196 0.261-0.588 0.327-0.914 0.131-4.18-3.331-8.098-0.131-8.294 0-0.261 0.196-0.653 0.196-0.914-0.065-0.196-0.261-0.196-0.653 0.065-0.914 0.065-0.065 4.833-4.049 9.861 0 0.392 0.131 0.392 0.588 0.196 0.849zM19.722 27.543c-0.718 0-1.306-0.588-1.306-1.306s0.588-1.306 1.306-1.306 1.306 0.588 1.306 1.306c-0.065 0.718-0.653 1.306-1.306 1.306zM21.682 13.633c-0.653 1.567-2.024 2.547-3.527 2.547s-2.873-0.98-3.527-2.547c-0.196-0.457 0.131-0.98 0.522-0.98h5.943c0.457 0 0.784 0.522 0.588 0.98zM25.012 17.355c0 0.522-0.588 0.588-1.11 0.849v-5.159c0.457 0.261 1.11 0.327 1.11 0.849v3.461z"></path>
</symbol>
<symbol id="icon-hand-1" viewBox="0 0 32 32">
<path fill="#ffc700" style="fill: var(--color1, #ffc700)" d="M5.381 23.279c0-0.193 0.035-0.38 0.097-0.555l-1.812-1.051c-0.229 0.47-0.364 1.022-0.366 1.605v0.001c0.001 0.576 0.131 1.122 0.363 1.609l-0.010-0.023 1.819-1.051c-0.056-0.16-0.090-0.344-0.091-0.535v-0.001zM3.985 25.445c0.63 0.895 1.62 1.501 2.756 1.605l0.015 0.001v-2.101c-0.384-0.077-0.712-0.276-0.952-0.553l-0.002-0.002-1.817 1.050zM10.176 21.101c-0.629-0.885-1.612-1.483-2.738-1.588l-0.015-0.001v2.096c0.363 0.074 0.692 0.264 0.938 0.541l1.815-1.049zM8.13 23.279c-0.006-0.572-0.468-1.035-1.040-1.041h-0.001c-0.573 0-1.041 0.475-1.041 1.040 0 0.547 0.445 1.041 1.040 1.041 0.603 0 1.041-0.497 1.041-1.040zM6.756 21.608v-2.096c-1.14 0.105-2.123 0.701-2.745 1.573l-0.008 0.012 1.815 1.052c0.24-0.27 0.562-0.463 0.927-0.539l0.011-0.002z"></path>
<path fill="#ffc700" style="fill: var(--color1, #ffc700)" d="M19.151 17.553c-0.189-0.207-0.46-0.337-0.761-0.337-0.181 0-0.35 0.047-0.498 0.128l0.005-0.003-3.702 2.012c-0.122 0.068-0.268 0.109-0.422 0.109-0.162 0-0.314-0.044-0.444-0.121l0.004 0.002c-0.261-0.151-0.435-0.425-0.443-0.74l-0-0.001-0.365-13.117c0-0.002 0-0.004 0-0.006 0-0.727-0.588-1.317-1.315-1.318h-0c-0.726 0.001-1.314 0.589-1.315 1.315v11.061c0 0.184-0.149 0.334-0.334 0.334s-0.334-0.149-0.334-0.334v0-12.556c-0.001-0.726-0.589-1.315-1.316-1.316h-0c-0.726 0.001-1.315 0.589-1.316 1.315v12.002c0 0.184-0.149 0.334-0.334 0.334s-0.334-0.149-0.334-0.334v0-10.078c-0.001-0.726-0.589-1.315-1.315-1.316h-0c-0.726 0.001-1.315 0.59-1.315 1.316v10.632c0 0.185-0.15 0.334-0.334 0.334s-0.334-0.15-0.334-0.334v0-8.891c-0.001-0.726-0.589-1.314-1.315-1.315h-0c-0.726 0.001-1.314 0.589-1.315 1.315v0l0.51 19.067c0.035 1.601 1.342 2.886 2.948 2.886 0.005 0 0.011 0 0.016-0h8.157c0 0 0.001 0 0.002 0 1.118 0 2.091-0.62 2.595-1.534l0.008-0.015 5.060-9.311c0.078-0.142 0.125-0.311 0.125-0.492 0-0.268-0.102-0.512-0.269-0.695l0.001 0.001zM7.090 27.736c-2.458 0-4.457-1.999-4.457-4.457 0-2.429 1.985-4.457 4.457-4.457 2.486 0 4.457 2.047 4.457 4.457 0 2.458-2 4.457-4.457 4.457z"></path>
<path fill="#ffc700" style="fill: var(--color1, #ffc700)" d="M7.423 24.951v2.101c1.15-0.105 2.141-0.711 2.763-1.594l0.008-0.012-1.817-1.050c-0.242 0.28-0.57 0.478-0.944 0.553l-0.011 0.002zM8.798 23.279c0 0.183-0.034 0.364-0.091 0.535l1.819 1.051c0.224-0.483 0.353-1.019 0.353-1.586 0-0.56-0.13-1.105-0.366-1.602l-1.811 1.047c0.061 0.174 0.097 0.362 0.097 0.555z"></path>
</symbol>
  </defs>
</svg>
